<?xml version="1.0" encoding="utf-8"?>
<!-- Generator: Adobe Illustrator 24.0.2, SVG Export Plug-In . SVG Version: 6.00 Build 0)  -->
<svg version="1.1" id="Layer_1" xmlns="http://www.w3.org/2000/svg" xmlns:xlink="http://www.w3.org/1999/xlink" x="0px" y="0px"
	viewBox="0 0 67.732 46" enable-background="new 0 0 67.732 46" xml:space="preserve" height="46" width="67">
	<path fill-rule="evenodd" clip-rule="evenodd" fill="#5D87A1" d="M46.299,4.665c-0.32,0-0.546,0.038-0.774,0.095v0.038h0.037
		c0.152,0.301,0.416,0.51,0.604,0.774c0.152,0.302,0.284,0.603,0.435,0.905c0.019-0.018,0.037-0.038,0.037-0.038
		c0.266-0.188,0.397-0.49,0.397-0.943c-0.114-0.133-0.132-0.264-0.227-0.396C46.696,4.911,46.451,4.816,46.299,4.665"/>
		<g>
			<path fill="#00758F" d="M16.284,41.906h-2.613c-0.092-4.411-0.347-8.559-0.763-12.445h-0.023L8.905,41.906h-1.99L2.961,29.461
				H2.937c-0.293,3.732-0.478,7.88-0.555,12.445H0c0.154-5.552,0.539-10.756,1.156-15.614h3.239l3.771,11.473h0.023l3.794-11.473
				h3.099C15.76,31.981,16.161,37.187,16.284,41.906"/>
				<path fill="#00758F" d="M27.619,30.386c-1.064,5.774-2.468,9.97-4.21,12.588C22.051,44.991,20.564,46,18.945,46
					c-0.432,0-0.964-0.13-1.596-0.389V44.22c0.309,0.045,0.671,0.069,1.087,0.069c0.755,0,1.364-0.209,1.828-0.626
					c0.555-0.508,0.832-1.079,0.832-1.711c0-0.432-0.216-1.319-0.647-2.66l-2.868-8.907h2.567l2.058,6.661
					c0.462,1.512,0.655,2.568,0.578,3.17c1.126-3.007,1.912-6.284,2.36-9.831L27.619,30.386L27.619,30.386z"/>
					<polygon fill="#F29111" points="62.408,41.906 54.983,41.906 54.983,26.291 57.482,26.291 57.482,39.985 62.408,39.985 	"/>
					<path fill-rule="evenodd" clip-rule="evenodd" fill="#F29111" d="M53.04,42.282l-2.87-1.415c0.256-0.21,0.498-0.436,0.718-0.697
						c1.218-1.433,1.828-3.553,1.828-6.36c0-5.165-2.028-7.75-6.084-7.75c-1.989,0-3.539,0.655-4.65,1.967
						c-1.219,1.434-1.827,3.546-1.827,6.338c0,2.745,0.539,4.759,1.619,6.038c0.987,1.156,2.475,1.735,4.465,1.735
						c0.743,0,1.425-0.092,2.044-0.275l3.737,2.175L53.04,42.282z M43.742,38.782c-0.632-1.017-0.949-2.651-0.949-4.903
						c0-3.932,1.196-5.899,3.585-5.899c1.25,0,2.167,0.47,2.753,1.41c0.632,1.018,0.948,2.637,0.948,4.858
						c0,3.963-1.196,5.946-3.586,5.946C45.245,40.194,44.327,39.725,43.742,38.782"/>
						<path fill="#F29111" d="M39.067,37.578c0,1.324-0.487,2.411-1.456,3.262c-0.971,0.847-2.274,1.271-3.908,1.271
							c-1.527,0-3.008-0.489-4.441-1.458l0.671-1.341c1.234,0.617,2.35,0.925,3.353,0.925c0.94,0,1.676-0.209,2.209-0.623
							c0.531-0.416,0.85-0.997,0.85-1.734c0-0.928-0.647-1.72-1.833-2.384c-1.096-0.601-3.284-1.856-3.284-1.856
							c-1.186-0.865-1.78-1.793-1.78-3.323c0-1.265,0.443-2.287,1.329-3.065c0.888-0.78,2.033-1.169,3.436-1.169
							c1.45,0,2.767,0.387,3.954,1.158l-0.603,1.34c-1.016-0.431-2.018-0.647-3.005-0.647c-0.801,0-1.419,0.193-1.849,0.58
							c-0.433,0.384-0.7,0.878-0.7,1.479c0,0.925,0.661,1.727,1.88,2.404c1.109,0.601,3.351,1.88,3.351,1.88
							C38.459,35.141,39.067,36.061,39.067,37.578"/>
							<path fill-rule="evenodd" clip-rule="evenodd" fill="#00758F" d="M65.543,21.061c-1.51-0.038-2.679,0.113-3.66,0.528
								c-0.283,0.113-0.735,0.113-0.774,0.472c0.152,0.151,0.17,0.395,0.303,0.604c0.226,0.377,0.621,0.886,0.981,1.15
								c0.396,0.302,0.792,0.603,1.208,0.867c0.735,0.455,1.566,0.718,2.281,1.171c0.416,0.264,0.83,0.603,1.247,0.887
								c0.207,0.151,0.338,0.396,0.603,0.49v-0.057c-0.133-0.169-0.17-0.414-0.301-0.604c-0.189-0.187-0.378-0.358-0.566-0.546
								c-0.547-0.736-1.227-1.377-1.961-1.905c-0.604-0.416-1.926-0.982-2.17-1.678c0,0-0.02-0.02-0.038-0.039
								c0.415-0.038,0.907-0.189,1.302-0.304c0.641-0.169,1.225-0.131,1.886-0.3c0.302-0.076,0.604-0.171,0.907-0.264v-0.171
								c-0.341-0.339-0.585-0.792-0.944-1.113c-0.961-0.83-2.019-1.64-3.113-2.321c-0.586-0.377-1.34-0.622-1.963-0.943
								c-0.225-0.113-0.602-0.169-0.735-0.359c-0.34-0.415-0.529-0.961-0.774-1.453c-0.546-1.036-1.076-2.187-1.547-3.283
								c-0.339-0.735-0.547-1.471-0.962-2.15c-1.944-3.208-4.057-5.15-7.301-7.056c-0.698-0.397-1.528-0.566-2.414-0.774
								c-0.472-0.02-0.944-0.056-1.415-0.075c-0.302-0.133-0.605-0.491-0.868-0.661c-1.076-0.678-3.848-2.149-4.641-0.206
								c-0.51,1.227,0.755,2.434,1.189,3.057c0.32,0.433,0.736,0.925,0.961,1.414c0.132,0.321,0.17,0.661,0.303,1
								c0.302,0.83,0.584,1.755,0.981,2.529c0.207,0.396,0.433,0.812,0.697,1.169c0.152,0.209,0.416,0.302,0.472,0.643
								c-0.263,0.376-0.284,0.943-0.435,1.415c-0.679,2.132-0.415,4.773,0.547,6.339c0.301,0.472,1.019,1.51,1.981,1.113
								c0.849-0.339,0.66-1.414,0.905-2.357c0.056-0.228,0.019-0.377,0.131-0.528v0.038c0.264,0.528,0.529,1.036,0.774,1.566
								c0.585,0.924,1.604,1.886,2.453,2.527c0.451,0.341,0.81,0.925,1.376,1.133v-0.057h-0.037c-0.113-0.169-0.283-0.245-0.434-0.377
								c-0.34-0.34-0.716-0.755-0.982-1.132c-0.792-1.056-1.491-2.226-2.112-3.434c-0.303-0.586-0.566-1.227-0.812-1.812
								c-0.113-0.225-0.113-0.566-0.302-0.679c-0.284,0.414-0.697,0.774-0.905,1.281c-0.359,0.812-0.396,1.812-0.529,2.85
								c-0.075,0.02-0.037,0-0.075,0.037c-0.603-0.151-0.811-0.773-1.038-1.3c-0.566-1.341-0.661-3.492-0.17-5.039
								c0.131-0.395,0.699-1.641,0.472-2.018c-0.114-0.36-0.491-0.566-0.698-0.85c-0.245-0.358-0.511-0.81-0.679-1.207
								c-0.453-1.056-0.68-2.226-1.169-3.282c-0.227-0.491-0.624-1.001-0.943-1.453c-0.36-0.51-0.755-0.868-1.038-1.471
								c-0.094-0.208-0.226-0.548-0.076-0.774c0.037-0.151,0.114-0.208,0.265-0.246c0.244-0.207,0.943,0.056,1.188,0.17
								c0.698,0.282,1.283,0.548,1.868,0.943c0.264,0.189,0.547,0.547,0.886,0.643h0.397c0.603,0.131,1.283,0.037,1.85,0.207
								c0.999,0.32,1.905,0.792,2.716,1.302c2.471,1.566,4.509,3.793,5.885,6.452c0.227,0.433,0.322,0.83,0.529,1.282
								c0.396,0.926,0.887,1.87,1.283,2.774c0.396,0.887,0.774,1.791,1.341,2.528c0.282,0.395,1.415,0.603,1.924,0.811
								c0.376,0.169,0.962,0.32,1.302,0.528c0.642,0.396,1.282,0.849,1.887,1.284C64.543,20.212,65.487,20.683,65.543,21.061"/>
								<path fill="#F29111" d="M67.342,41.904h0.39v-1.913h-0.587l-0.478,1.304l-0.52-1.304h-0.566v1.913h0.369v-1.456h0.021l0.545,1.456
									h0.281l0.544-1.456L67.342,41.904L67.342,41.904z M64.191,41.904h0.414v-1.588h0.542v-0.325h-1.519v0.325h0.563V41.904z"/>
								</g>
							</svg>
