<?xml version="1.0" encoding="utf-8"?>
<!-- Generator: Adobe Illustrator 24.0.2, SVG Export Plug-In . SVG Version: 6.00 Build 0)  -->
<svg version="1.1" id="Layer_1" xmlns="http://www.w3.org/2000/svg" xmlns:xlink="http://www.w3.org/1999/xlink" x="0px" y="0px"
	viewBox="0 0 99.22 36" enable-background="new 0 0 99.22 36" xml:space="preserve" width="99" height="36">
	<g transform="matrix(.03881911 0 0 .03881916 -.560501 8.162276)">
		<g>
			<g>
				<g>
					<g>
						<g>
							<defs>
								<path id="SVGID_1_" d="M763.339,217.668L513.706,467.392l249.633,249.724H478.082l-107.05-107.05L228.359,467.392
									l249.723-249.724L763.339,217.668L763.339,217.668z M478.082-210.265L14.439,253.381l142.673,142.674l606.227-606.32
									C763.339-210.265,478.082-210.265,478.082-210.265z"/>
								</defs>
								<clipPath id="SVGID_2_">
									<use xlink:href="#SVGID_1_"  overflow="visible"/>
								</clipPath>
								<g clip-path="url(#SVGID_2_)">
									<path fill="#39CEFD" d="M371.032,610.065l392.307-392.398H478.082L228.449,467.392L371.032,610.065z"/>
								</g>
							</g>
						</g>
					</g>
				</g>
			</g>
			<g>
				<g>
					<g>
						<g>
							<g>
								<defs>
									<path id="SVGID_3_" d="M763.339,217.668L513.706,467.392l249.633,249.724H478.082l-107.05-107.05L228.359,467.392
										l249.723-249.724L763.339,217.668L763.339,217.668z M478.082-210.265L14.439,253.381l142.673,142.674l606.227-606.32
										C763.339-210.265,478.082-210.265,478.082-210.265z"/>
									</defs>
									<clipPath id="SVGID_4_">
										<use xlink:href="#SVGID_3_"  overflow="visible"/>
									</clipPath>
									<path clip-path="url(#SVGID_4_)" fill="#39CEFD" d="M14.439,253.381l463.643-463.646h285.257l-606.227,606.32L14.439,253.381z
										"/>
									</g>
								</g>
							</g>
						</g>
					</g>
					<g>
						<g>
							<g>
								<g>
									<g>
										<defs>
											<path id="SVGID_5_" d="M763.339,217.668L513.706,467.392l249.633,249.724H478.082l-107.05-107.05L228.359,467.392
												l249.723-249.724L763.339,217.668L763.339,217.668z M478.082-210.265L14.439,253.381l142.673,142.674l606.227-606.32
												C763.339-210.265,478.082-210.265,478.082-210.265z"/>
											</defs>
											<clipPath id="SVGID_6_">
												<use xlink:href="#SVGID_5_"  overflow="visible"/>
											</clipPath>
											<path clip-path="url(#SVGID_6_)" fill="#03569B" d="M478.082,717.026h285.257L513.706,467.392L371.032,610.065
												L478.082,717.026z"/>
											</g>
										</g>
									</g>
								</g>
							</g>
							<g>
								<g>
									<g>
										<g>
											<g>
												<defs>
													<path id="SVGID_7_" d="M763.339,217.668L513.706,467.392l249.633,249.724H478.082l-107.05-107.05L228.359,467.392
														l249.723-249.724L763.339,217.668L763.339,217.668z M478.082-210.265L14.439,253.381l142.673,142.674l606.227-606.32
														C763.339-210.265,478.082-210.265,478.082-210.265z"/>
													</defs>
													<clipPath id="SVGID_8_">
														<use xlink:href="#SVGID_7_"  overflow="visible"/>
													</clipPath>
													
													<linearGradient id="SVGID_9_" gradientUnits="userSpaceOnUse" x1="88244.7969" y1="-210556.875" x2="88250.5938" y2="-210562.6875" gradientTransform="matrix(1.988913e-07 0 0 1.988920e-07 -209077.6563 -89119.7578)">
														<stop  offset="0" style="stop-color:#1A237E;stop-opacity:0.4"/>
														<stop  offset="1" style="stop-color:#1A237E;stop-opacity:0"/>
													</linearGradient>
													<path clip-path="url(#SVGID_8_)" fill="url(#SVGID_9_)" d="M513.706,467.392L371.033,610.065l211.599-73.301L513.706,467.392z
														"/>
													</g>
												</g>
											</g>
										</g>
									</g>
									<g>
										<g>
											<g>
												<g>
													<g>
														<defs>
															<path id="SVGID_10_" d="M763.339,217.668L513.706,467.392l249.633,249.724H478.082l-107.05-107.05L228.359,467.392
																l249.723-249.724L763.339,217.668L763.339,217.668z M478.082-210.265L14.439,253.381l142.673,142.674l606.227-606.32
																C763.339-210.265,478.082-210.265,478.082-210.265z"/>
															</defs>
															<clipPath id="SVGID_11_">
																<use xlink:href="#SVGID_10_"  overflow="visible"/>
															</clipPath>
															<g clip-path="url(#SVGID_11_)">
																<path fill="#16B9FD" d="M228.449,467.302l142.673-142.674l142.673,142.674L371.122,610.065L228.449,467.302z"/>
															</g>
														</g>
													</g>
												</g>
											</g>
										</g>
										
										<radialGradient id="SVGID_12_" cx="249488.4063" cy="262553.4063" r="16.3597" gradientTransform="matrix(1.988913e-07 0 0 1.988920e-07 -209077.6563 -89119.7578)" gradientUnits="userSpaceOnUse">
											<stop  offset="0" style="stop-color:#FFFFFF;stop-opacity:0.1"/>
											<stop  offset="1" style="stop-color:#FFFFFF;stop-opacity:0"/>
										</radialGradient>
										<path fill="url(#SVGID_12_)" d="M763.339,217.668L513.706,467.392l249.633,249.724H478.082l-107.05-107.05L228.359,467.392
											l249.723-249.724L763.339,217.668L763.339,217.668z M478.082-210.265L14.439,253.381l142.673,142.674l606.227-606.32
											C763.339-210.265,478.082-210.265,478.082-210.265z"/>
										</g>
										<g transform="matrix(1.0352624 0 0 1.0352624 -1.939178 -1.035154)">
											<path fill="#808080" d="M33.341,10.32h9.375v1.786h-7.41v5.535h6.696v1.786h-6.696v6.964h-1.875V10.32L33.341,10.32L33.341,10.32z"
												/>
												<path fill="#808080" d="M44.948,10.32h1.875v16.16h-1.875V10.32z"/>
												<path fill="#808080" d="M53.876,26.837c-1.429,0-2.411-0.446-3.214-1.25c-0.714-0.804-1.071-1.964-1.071-3.393v-7.232h1.875v6.964
													c0,1.071,0.268,1.875,0.714,2.411c0.536,0.536,1.161,0.804,2.053,0.804c0.625,0,1.25-0.179,1.696-0.536
													c0.536-0.357,0.893-0.804,1.161-1.339c0.268-0.536,0.446-1.161,0.446-1.786v-6.518h1.875V26.48h-1.786v-1.696h-0.089
													c-0.357,0.536-0.804,1.071-1.518,1.429C55.394,26.659,54.68,26.837,53.876,26.837z"/>
													<path fill="#808080" d="M66.911,26.659c-0.446,0-0.893-0.089-1.339-0.268c-0.357-0.179-0.714-0.357-0.982-0.625
														s-0.536-0.625-0.714-0.982c-0.179-0.357-0.268-0.804-0.268-1.339v-6.785h-2.053v-1.696h2.053v-3.214h1.875v3.214h2.768v1.696
														h-2.768v6.25c0,0.625,0.089,1.071,0.357,1.429c0.268,0.357,0.714,0.536,1.25,0.536c0.446,0,0.893-0.089,1.25-0.357v1.875
														c-0.268,0.089-0.446,0.179-0.714,0.268C67.625,26.659,67.268,26.659,66.911,26.659z"/>
														<path fill="#808080" d="M75.036,26.659c-0.446,0-0.893-0.089-1.339-0.268c-0.357-0.179-0.714-0.357-0.982-0.625
															S72.179,25.141,72,24.784c-0.179-0.357-0.268-0.804-0.268-1.339v-6.785h-1.875v-1.696h2.053v-3.214h1.875v3.214h2.768v1.696h-2.768
															v6.25c0,0.625,0.089,1.071,0.357,1.429c0.268,0.357,0.714,0.536,1.25,0.536c0.446,0,0.893-0.089,1.25-0.357v1.875
															c-0.268,0.089-0.446,0.179-0.714,0.268C75.75,26.659,75.393,26.659,75.036,26.659z"/>
															<path fill="#808080" d="M83.518,26.837c-1.071,0-2.053-0.268-2.946-0.804s-1.518-1.25-2.053-2.143
																c-0.446-0.893-0.714-1.964-0.714-3.125c0-1.071,0.268-2.143,0.714-3.036c0.446-0.893,1.161-1.696,1.964-2.232
																s1.786-0.804,2.946-0.804s2.143,0.268,2.946,0.804c0.804,0.536,1.429,1.161,1.875,2.053c0.446,0.893,0.714,1.875,0.714,3.036
																c0,0.268,0,0.446-0.089,0.625h-9.196c0.089,0.893,0.268,1.607,0.625,2.232c0.357,0.625,0.893,1.071,1.429,1.339
																c0.625,0.268,1.161,0.446,1.786,0.446c1.518,0,2.589-0.714,3.393-2.053l1.607,0.804c-0.536,0.893-1.161,1.696-2.053,2.232
																C85.75,26.57,84.767,26.837,83.518,26.837L83.518,26.837z M86.821,19.516c0-0.446-0.179-0.982-0.446-1.429s-0.625-0.893-1.161-1.25
																c-0.536-0.357-1.161-0.536-1.964-0.536c-0.893,0-1.696,0.268-2.321,0.893c-0.625,0.536-0.982,1.339-1.25,2.321H86.821z"/>
																<path fill="#808080" d="M91.106,14.963h1.786v1.875h0.089c0.268-0.625,0.625-1.161,1.339-1.518
																	c0.625-0.446,1.339-0.625,2.053-0.625c0.536,0,0.982,0.089,1.339,0.268v2.053c-0.446-0.268-0.982-0.357-1.607-0.357
																	c-0.536,0-1.071,0.179-1.518,0.446c-0.446,0.357-0.804,0.714-1.161,1.25c-0.268,0.536-0.446,1.071-0.446,1.696v6.428h-1.875V14.963
																	z"/>
																</g>
															</svg>
