<?xml version="1.0" encoding="utf-8"?>
<!-- Generator: Adobe Illustrator 24.0.2, SVG Export Plug-In . SVG Version: 6.00 Build 0)  -->
<svg version="1.1" id="Layer_1" xmlns="http://www.w3.org/2000/svg" xmlns:xlink="http://www.w3.org/1999/xlink" x="0px" y="0px"
	viewBox="0 0 2499.722 2021" enable-background="new 0 0 2499.722 2021" xml:space="preserve" width="74" height="60">
	<g transform="matrix(.569 0 0 .569 199.451 -82.735)">
		
		<linearGradient id="SVGID_1_" gradientUnits="userSpaceOnUse" x1="-18494.1055" y1="-10524.29" x2="-17653.4023" y2="-11021.0479" gradientTransform="matrix(0.1187 0 0 0.1187 3791.4788 3578.1467)">
			<stop  offset="0" style="stop-color:#909CA9"/>
			<stop  offset="1" style="stop-color:#EDEDEE"/>
		</linearGradient>
		<path fill="url(#SVGID_1_)" d="M2627.931,1276.369l-485.164,158.423l-422.086,186.288l-118.085,31.175
			c-30.074,28.606-61.607,57.579-95.712,86.915c-37.405,32.269-72.242,61.61-99.016,82.875
			c-29.702,23.472-73.708,67.476-96.076,95.342c-33.373,41.804-59.776,86.176-71.144,120.285
			c-20.171,61.61-10.265,123.949,28.606,181.528c49.873,73.339,149.254,148.147,265.132,199.12
			c59.045,26.042,158.423,59.41,233.23,78.11c124.313,31.54,364.881,65.645,497.262,70.783c26.766,1.099,62.708,1.099,64.171,0
			c2.938-1.84,23.473-41.074,47.314-89.844c81.411-166.126,140.084-321.98,171.986-455.095c19.068-80.674,34.102-188.123,44-315.368
			c2.572-35.573,3.668-154.755,1.468-195.097c-3.302-66.007-9.17-119.544-18.331-171.986c-1.468-7.703-1.84-14.672-1.103-15.037
			c1.463-1.099,5.863-2.565,65.638-19.806l-12.096-28.599v-0.008h0.007L2627.931,1276.369z M2517.184,1341.282
			c4.4,0,16.131,112.579,19.063,183.727c0.737,15.033,0.365,24.935-0.365,24.935c-2.931,0-61.976-34.834-104.14-61.236
			c-36.674-23.105-106.347-69.313-117.347-78.113c-3.675-2.565-3.309-2.931,26.766-13.202
			C2392.129,1380.153,2513.151,1341.282,2517.184,1341.282z M2270.018,1422.695c3.302,0,11.731,4.762,31.902,17.234
			c75.541,47.306,178.226,104.516,222.23,123.587c13.566,5.866,15.029,3.663-16.136,24.936
			c-66.743,45.471-149.992,90.208-251.939,135.315c-17.966,8.068-32.999,14.3-33.365,14.3c-0.73,0,1.463-9.162,4.394-20.166
			c24.571-91.319,38.509-183.728,39.246-257.805c0.365-36.674,0.365-36.674,3.668-37.768
			C2269.28,1422.695,2269.646,1422.695,2270.018,1422.695L2270.018,1422.695z M2219.046,1442.128
			c2.193,2.197,0.731,84.345-2.205,106.712c-6.6,53.542-16.868,103.413-33.731,159.526c-4.035,13.559-7.708,24.935-8.433,25.665
			c-1.475,1.831-51.714-47.307-68.216-66.376c-28.606-33.006-50.97-66.01-67.473-98.279c-8.435-16.503-21.634-48.77-20.536-49.873
			C2024.317,1515.471,2217.578,1440.664,2219.046,1442.128L2219.046,1442.128z M1979.21,1536.373c0.365,0,0.731,0,1.103,0.365
			c0.731,0.734,3.303,6.604,5.503,13.202c11.731,31.905,38.13,78.844,60.873,108.916c24.936,33.006,57.577,68.207,84.707,91.31
			c8.805,7.334,16.868,14.3,17.966,15.402c2.205,2.202,2.938,1.831-56.84,24.571c-69.301,26.403-144.849,52.805-231.396,80.674
			c-20.674,6.665-41.329,13.389-61.965,20.171c-3.306,1.103-2.203-0.734,7.331-15.766c42.904-67.111,108.177-198.76,144.851-291.907
			c6.235-16.136,12.468-32.269,13.571-35.937c1.468-5.137,3.298-6.969,8.063-9.538
			C1975.542,1537.11,1978.112,1536.373,1979.21,1536.373L1979.21,1536.373z M1905.874,1566.81
			c1.098,0.737-17.606,39.972-35.942,75.91c-35.573,69.308-74.444,137.522-126.516,220.397c-8.8,14.3-17.232,27.505-18.334,28.971
			c-1.831,2.569-2.569,1.831-8.435-9.534c-12.468-24.571-22.74-56.111-28.239-85.082c-5.503-28.606-4.4-78.475,1.836-109.278
			c4.762-22.735,4.4-22.368,15.401-27.87C1752.583,1636.489,1904.406,1565.344,1905.874,1566.81L1905.874,1566.81z
			M2538.452,1592.484v15.4c0,81.778-8.8,193.991-21.64,275.772c-2.2,14.3-4.04,26.03-4.4,26.403c0,0-10.633-2.931-23.102-6.604
			c-55.005-17.237-114.781-42.54-168.69-72.239c-35.576-19.437-87.279-51.346-85.809-52.813c0.36-0.364,15.766-8.432,33.731-17.968
			c71.885-37.403,140.821-77.741,200.596-117.713c22.371-15.037,56.103-39.236,63.445-45.839L2538.452,1592.484L2538.452,1592.484z
			M1628.999,1701.024c1.466,0,1.099,2.934-1.101,16.136c-1.468,9.537-3.299,27.14-4.028,39.236
			c-2.941,53.542,5.866,93.15,32.269,147.421c7.334,15.037,13.206,27.505,12.833,27.869c-2.569,2.203-245.328,73.35-321.61,94.249
			c-22.734,6.232-42.533,11.734-44.008,12.096c-2.562,0.737-2.931,0.372-1.831-5.868c8.433-53.902,49.507-124.313,106.712-183.723
			c38.14-39.603,68.579-62.704,120.652-92.413c37.404-21.265,94.978-53.165,99.378-54.636
			C1628.268,1701.024,1628.633,1701.024,1628.999,1701.024L1628.999,1701.024z M2201.075,1803.338
			c0.365-0.365,9.166,4.405,19.799,10.637c78.479,45.474,187.758,87.647,280.898,109.281l8.44,1.837l-11.738,6.594
			c-48.77,27.14-209.025,93.879-372.942,155.124c-23.841,8.797-47.307,17.602-51.714,19.434c-4.4,1.831-8.435,2.934-8.435,2.569
			c0-0.372,6.605-13.206,15.033-28.971c45.84-85.811,92.049-190.323,115.518-262.934
			C2198.875,1809.941,2200.703,1803.709,2201.075,1803.338L2201.075,1803.338z M2142.767,1822.41
			c0.372,0.374-2.565,8.068-6.235,16.868c-31.902,77.376-73.713,161.726-127.25,256.335c-13.566,24.206-24.936,43.643-25.308,43.643
			c-0.36,0-11.366-6.605-24.566-14.672c-77.748-47.674-146.687-106.347-191.79-163.188l-6.604-8.068l33.368-9.169
			c119.551-32.634,221.126-67.838,321.977-111.109C2130.664,1827.18,2142.402,1822.41,2142.767,1822.41z M2505.081,1948.926
			C2505.081,1948.926,2505.448,1949.293,2505.081,1948.926c0.365,8.435-18.338,83.98-33.741,138.614
			c-12.833,45.84-23.841,81.781-44.005,145.218c-8.8,27.877-16.496,50.973-16.868,50.973c-0.365,0-2.565-0.365-4.765-1.094
			c-108.912-19.809-206.459-47.311-298.138-83.979c-25.674-10.271-62.342-26.775-64.543-28.606
			c-0.73-0.741,21.274-11.002,49.142-23.105c166.855-72.976,339.943-155.854,399.348-191.421
			C2498.476,1951.124,2503.979,1948.926,2505.081,1948.926L2505.081,1948.926z M1668.607,1977.532
			c0.734,0.731-45.839,67.842-111.118,159.152c-22.734,31.905-49.137,69.308-59.036,83.242c-9.903,13.936-24.936,35.94-33.371,49.142
			l-15.409,23.837l-16.503-13.934c-19.437-16.139-53.17-50.608-68.205-69.678c-31.54-39.234-52.805-80.674-61.24-118.442
			c-4.035-17.605-4.035-26.411-0.372-27.505c5.499-1.466,103.413-24.571,195.097-45.844c50.974-11.731,110.01-25.665,131.28-30.799
			C1651.001,1981.56,1668.242,1977.532,1668.607,1977.532L1668.607,1977.532z M1715.544,1995.501l11.731,13.2
			c52.813,59.041,106.719,102.688,171.994,140.818c11.738,6.605,20.536,12.468,19.799,12.842
			c-2.56,1.831-226.629,81.401-330.407,117.341c-58.304,20.534-106.347,37.036-106.709,37.036c-0.365,0-3.668-2.197-7.341-4.765
			l-6.597-4.769l10.633-15.399c34.469-49.875,77.748-104.512,171.992-218.194L1715.544,1995.501L1715.544,1995.501z
			M2008.186,2204.891c0.36-0.364,16.496,5.499,36.297,12.842c47.679,17.966,85.444,29.332,136.056,42.168
			c62.342,15.771,152.552,31.173,205.729,35.571c8.068,0.73,12.468,1.468,11,2.569c-2.572,1.468-56.473,19.437-96.079,31.905
			c-63.08,19.799-255.602,76.639-412.554,121.748c-28.971,8.433-53.909,15.402-55.375,15.766c-3.663,0.737-15.769-2.569-15.769-4.035
			c0-0.729,8.8-12.096,19.437-24.566c52.803-63.076,105.248-133.483,148.887-200.226
			C1997.913,2220.292,2008.186,2205.258,2008.186,2204.891L2008.186,2204.891z M1943.639,2206.729
			c0.365,0.365-25.669,42.168-71.136,114.043c-19.44,30.438-41.077,64.908-48.78,77.011c-7.334,11.734-18.334,30.074-24.566,40.339
			l-10.637,18.705l-5.499-1.468c-13.205-3.668-105.982-36.309-130.553-46.208c-30.439-12.103-61.975-26.768-85.447-39.236
			c-29.333-15.771-66.002-39.243-63.071-39.971c0.732-0.365,50.974-13.939,111.478-30.438
			c160.623-43.644,249.732-68.944,308.045-87.279C1934.108,2208.926,1943.273,2206.358,1943.639,2206.729L1943.639,2206.729z
			M2400.198,2313.804h0.365c1.468,3.671-57.936,168.691-79.581,220.762c-4.76,11.734-6.588,14.673-9.16,14.3
			c-6.235-0.36-92.409-12.463-144.856-20.166c-91.307-13.934-244.596-40.709-283.098-49.506l-8.8-1.832l54.633-12.477
			c117.353-26.403,173.825-40.702,231.03-58.304c72.245-22.002,143.758-49.507,215.997-83.242
			C2388.095,2318.204,2397.631,2314.17,2400.198,2313.804L2400.198,2313.804z"/>
			
			<linearGradient id="SVGID_2_" gradientUnits="userSpaceOnUse" x1="-18460.9414" y1="-26978.5781" x2="-17784.4902" y2="-26978.5781" gradientTransform="matrix(0.1187 0 0 0.1187 3791.4788 3578.1467)">
				<stop  offset="0" style="stop-color:#939FAB"/>
				<stop  offset="1" style="stop-color:#DCDEE1"/>
			</linearGradient>
			<path fill="url(#SVGID_2_)" d="M2127.734,145.423c-8.068-1.094-138.256,45.845-222.23,79.945
				c-113.318,46.211-201.324,90.22-255.6,128.35c-20.166,14.308-45.474,39.608-49.502,49.507c-1.466,3.668-2.203,8.068-2.203,12.468
				l49.142,46.573l116.979,37.404l278.338,49.874l318.304,54.641l3.302-27.503c-1.097,0-1.835-0.365-2.925-0.365l-41.817-6.604
				l-8.428-15.034c-43.274-76.278-90.947-170.891-118.815-234.7c-21.634-49.507-42.172-106.709-53.542-147.783
				c-6.235-24.936-6.966-26.402-10.994-26.768v-0.008h-0.008L2127.734,145.423z M2121.859,164.131h0.377
				c0.36,0.362,1.828,10.637,3.297,22.731c6.228,51.347,17.606,100.846,35.572,154.388c13.566,40.34,13.566,38.142-2.2,33.371
				c-37.405-10.265-204.992-39.236-326.374-56.104c-19.437-2.569-35.94-5.134-35.94-5.499c-1.466-1.466,87.642-48.043,126.882-66.374
				C1973.712,223.536,2111.596,165.963,2121.859,164.131L2121.859,164.131z M1768.349,328.417l14.308,4.762
				c77.738,26.408,273.192,63.814,381.012,72.614c12.098,1.101,22.371,2.203,22.731,2.203c0.365,0.365-9.896,5.866-23.101,12.098
				c-52.068,26.037-109.278,57.942-148.884,82.513c-11.731,7.331-22.371,13.202-23.834,13.202c-1.468,0-9.166-1.468-17.234-2.569
				l-14.668-2.203l-36.667-35.94c-64.542-62.704-115.151-111.109-134.588-129.449L1768.349,328.417z M1753.686,339.783l51.706,64.544
				c28.234,35.571,56.838,70.407,63.078,78.105c6.228,7.706,11.366,13.943,11,14.308c-1.468,1.099-74.806-13.205-113.683-22.002
				c-39.972-9.171-56.473-13.571-81.042-21.268l-20.171-6.604v-5.137c0.365-24.571,31.54-61.24,84.345-98.641L1753.686,339.783
				L1753.686,339.783z M2193.007,427.796c1.47,0,3.298,3.299,7.698,13.2c12.468,27.502,51.347,101.582,60.873,115.881
				c2.943,4.772,8.068,5.137-43.633-3.298c-124.313-20.174-164.29-26.768-164.29-27.502c0-0.365,3.668-2.934,8.435-5.503
				c38.507-21.265,77.376-48.405,111.85-77.376c8.435-6.969,16.136-13.569,17.599-14.672
				C2191.904,427.796,2192.642,427.43,2193.007,427.796L2193.007,427.796z"/>
				
				<radialGradient id="SVGID_3_" cx="-6768.4863" cy="-5826.6006" r="898.12" gradientTransform="matrix(-0.114 -0.0171 0.0346 -0.228 1741.85 -423.16)" gradientUnits="userSpaceOnUse">
					<stop  offset="0" style="stop-color:#EE352C"/>
					<stop  offset="1" style="stop-color:#A91D22"/>
				</radialGradient>
				<path fill="url(#SVGID_3_)" d="M1602.96,398.091c0,0-8.063,12.84-0.364,31.91c4.772,11.731,18.705,26.03,34.47,40.702
					c0,0,163.187,159.152,182.991,181.892c90.208,104.144,129.449,206.825,133.117,348.378c2.2,90.945-15.04,170.888-57.942,263.668
					c-76.277,166.49-237.267,350.214-485.531,554.108l36.31-12.103c23.469-17.606,55.374-36.302,130.181-77.376
					c172.719-94.618,367.079-181.528,605.445-271.005c343.235-129.087,907.615-280.176,1228.85-329.31l33.376-5.137l-5.137-8.068
					c-29.331-45.474-49.508-73.708-73.713-103.779c-70.404-87.279-155.843-158.051-260.362-216.727
					c-143.751-80.307-329.681-143.014-565.105-189.588c-44.372-8.805-141.918-25.672-221.127-37.773
					c-167.958-26.03-276.505-44.003-396.05-64.539c-42.902-7.337-107.083-18.336-149.621-27.502
					c-22.002-4.772-64.171-14.672-97.175-26.039C1649.17,439.53,1611.028,429.262,1602.96,398.091L1602.96,398.091z M1697.578,489.773
					c0.362-0.362,6.228,1.831,13.934,4.4c13.934,4.762,31.902,10.265,53.177,16.136c16.095,4.427,32.231,8.705,48.405,12.833
					c22.002,5.498,40.335,10.633,40.7,10.633c2.572,2.569,39.611,121.009,52.079,166.483c4.76,17.24,8.435,31.905,8.068,31.905
					c-0.377,0.372-4.405-5.866-9.171-14.3c-42.907-75.545-110.749-152.187-189.227-213.797
					C1705.281,496.74,1697.578,490.138,1697.578,489.773L1697.578,489.773z M1878,539.645c1.835,0,9.903,1.101,19.799,3.299
					c62.343,13.934,174.192,35.204,245.699,47.307c12.103,1.831,21.641,4.037,21.641,4.765c0,0.737-4.405,3.299-9.908,6.237
					c-12.096,6.232-60.873,35.199-77.004,46.203c-40.709,27.136-77.376,56.473-103.782,82.875
					c-10.633,10.637-19.806,19.437-19.806,19.437s-2.193-6.232-4.035-13.938c-13.194-50.974-40.702-126.518-65.638-179.688
					c-4.035-8.432-7.338-16.134-7.338-16.865C1877.628,540.011,1877.628,539.645,1878,539.645L1878,539.645z M2195.572,600.153
					c2.2,0.731,5.868,13.2,13.2,40.702c13.571,53.177,19.806,112.584,17.605,167.957c-0.737,15.402-1.468,29.702-2.205,31.54
					l-1.097,3.663l-19.068-6.232c-39.239-12.468-103.045-31.175-157.683-46.573c-31.176-8.435-56.473-16.136-56.473-16.868
					c0-2.203,45.474-47.674,64.908-64.908C2091.791,676.792,2192.27,599.051,2195.572,600.153L2195.572,600.153z M2220.875,603.816
					c1.103-1.094,151.822,24.936,220.397,38.14c50.977,9.899,125.05,25.303,129.448,27.14c2.2,0.731-5.503,5.131-30.074,16.131
					c-96.81,43.643-168.69,82.875-240.191,130.553c-18.703,12.468-34.474,22.734-34.839,22.734c-0.365,0-0.732-10.632-0.732-23.468
					c0-69.673-13.936-140.084-39.611-199.491C2222.708,609.687,2220.509,604.188,2220.875,603.816z M2610.691,680.83
					c1.103,1.099-3.668,30.806-8.068,48.405c-13.2,54.641-48.77,135.69-92.404,211.962c-7.708,13.569-14.673,24.571-15.412,24.936
					c-0.725,0.365-10.628-5.138-21.999-11.738c-42.537-24.936-90.941-48.405-143.751-70.411c-14.663-6.232-27.502-11.369-27.869-12.096
					c-2.572-2.203,115.513-80.313,177.855-117.718C2528.55,724.102,2609.223,679.36,2610.691,680.83L2610.691,680.83z M2638.56,685.229
					c3.303,0,70.045,18.338,104.878,28.606c86.181,25.672,185.191,61.974,249.733,91.31l26.766,12.106l-18.696,4.397
					c-157.683,36.302-292.635,78.113-422.822,130.918c-10.635,4.4-20.171,8.068-20.896,8.068c-0.737,0,2.931-8.433,7.698-18.705
					c39.239-83.242,64.542-170.154,70.771-244.234C2636.364,690.726,2637.457,685.228,2638.56,685.229L2638.56,685.229z
					M1974.079,837.784c1.098-1.103,52.073,11.002,79.576,18.696c41.805,11.739,130.546,41.439,130.546,43.643
					c0,0.365-9.898,8.8-21.629,19.072c-48.04,39.972-94.25,82.138-149.626,135.68c-16.503,15.774-30.434,28.608-31.164,28.608
					c-0.737,0-1.098-2.205-0.737-5.137c8.433-61.61,6.605-140.818-5.131-221.128C1974.81,846.946,1973.712,838.149,1974.079,837.784z
					M3045.25,838.886c0.725,0.729-23.474,38.867-38.874,60.501c-21.999,31.536-54.28,73.35-127.255,165.027
					c-38.497,48.401-81.776,103.046-96.072,121.381c-14.675,18.334-26.771,33.733-27.143,33.733c-0.365,0-5.125-6.597-10.263-14.663
					c-41.074-61.61-90.216-115.518-148.524-163.922c-11-9.171-23.096-19.072-27.131-22.006c-4.035-2.932-7.337-5.866-7.337-6.232
					c0-1.097,62.336-27.874,109.65-46.939c82.879-33.74,195.814-74.077,280.533-100.116
					C2997.206,851.718,3044.513,838.149,3045.25,838.886L3045.25,838.886z M3073.484,846.215c1.463-0.364,10.268,4.037,20.903,10.265
					c89.114,50.974,176.386,116.619,245.333,184.095c19.434,19.072,67.473,68.944,66.736,69.31c0,0-16.868,1.466-36.667,2.931
					c-154.387,11.739-352.041,44.372-542.002,90.209c-12.833,2.931-24.199,5.499-24.936,5.499c-0.726,0,13.571-14.3,31.543-31.533
					c111.478-107.446,162.455-175.288,222.591-296.307C3065.416,862.72,3072.754,847.318,3073.484,846.215
					C3073.119,846.215,3073.119,846.215,3073.484,846.215L3073.484,846.215z M2256.812,929.831c5.137,1.094,52.81,23.472,88.747,41.436
					c33.004,16.496,82.513,42.906,85.079,45.102c0.365,0.365-17.24,9.534-38.867,20.171c-68.948,34.47-127.986,67.104-189.598,104.511
					c-17.601,10.637-32.269,19.442-32.634,19.442c-1.468,0-1.103-1.475,8.8-19.442c33.006-60.136,59.405-132.012,74.445-202.058
					C2254.245,933.494,2255.715,929.831,2256.812,929.831L2256.812,929.831z M2209.138,938.628
					c1.102,1.103-11.366,46.205-19.063,70.776c-15.04,46.573-40.342,104.879-64.908,148.886c-5.875,10.263-14.673,25.3-19.44,33.733
					l-9.166,14.668l-20.536-19.797c-23.834-23.105-43.274-37.406-68.205-50.245c-9.908-5.129-17.606-9.534-17.606-10.263
					c0-2.934,62.708-59.774,110.747-100.846C2135.43,995.835,2208.04,937.529,2209.138,938.628L2209.138,938.628z M2500.683,1058.546
					l17.971,11.731c41.062,26.775,89.467,62.343,126.513,93.512c20.896,17.232,61.233,53.542,69.308,62.343l4.394,4.772l-29.697,8.432
					c-167.958,46.568-297.773,88.008-449.228,143.752c-16.868,6.231-31.171,11.366-32.274,11.366c-2.193,0-4.033,1.831,33.743-33.008
					c96.814-89.104,182.62-187.389,246.431-283.102L2500.683,1058.546L2500.683,1058.546z M2424.037,1077.614
					c0.731,0.731-49.507,71.505-79.581,111.478c-35.937,47.674-99.747,127.615-143.752,179.685
					c-18.331,21.641-34.097,39.608-34.834,39.977c-1.103,0.365-1.468-5.134-1.468-13.569c0-44.377-11.365-91.682-31.171-132.017
					c-8.435-16.868-9.903-20.903-8.063-22.735c6.966-6.237,113.678-67.111,181.151-103.413
					C2351.792,1112.817,2422.928,1076.88,2424.037,1077.614L2424.037,1077.614z M1960.507,1191.296c1.103,0,9.538,4.397,19.073,9.534
					c23.469,12.833,44.372,27.135,63.073,42.54c0.73,0.731-8.8,8.435-21.269,17.597c-34.839,24.936-87.644,64.911-118.443,89.482
					c-32.279,25.67-33.371,26.402-29.708,20.903c24.206-37.039,36.302-57.942,49.142-84.71c11.366-23.834,22.731-52.073,30.799-76.644
					C1956.107,1199.364,1959.776,1191.296,1960.507,1191.296L1960.507,1191.296z M2084.094,1288.105
					c1.828-0.362,4.035,2.934,13.931,17.606c20.903,31.165,37.039,72.976,41.079,106.712l0.725,7.338l-50.233,19.437
					c-89.851,34.834-172.723,69.308-228.837,94.973c-15.764,7.337-43.269,20.536-61.235,29.343
					c-17.971,9.162-32.639,16.131-32.639,15.766s11.366-8.8,25.3-19.072c109.655-79.573,204.63-166.855,275.771-254.13
					c7.703-9.171,14.673-17.606,15.4-17.971L2084.094,1288.105L2084.094,1288.105z M2027.255,1302.043
					c1.468,1.466-40.337,48.77-68.941,77.74c-70.776,72.247-140.819,128.723-227.733,183.732c-11,6.965-20.9,13.197-22.002,13.934
					c-2.569,1.466,0.73-2.203,38.871-43.643c24.206-26.037,42.539-48.04,63.442-75.172c13.934-17.966,16.503-20.535,36.676-34.843
					C1901.474,1384.918,2025.787,1300.573,2027.255,1302.043z"/>
				</g>
				<path fill="#231F1F" d="M449.393,1522.125c-3.849,0-7.699,0.367-11.514,0.367c-77.746,4.143-130.183,38.358-160.841,105.175
					c-26.222,60.43-23.359,139.421,0.294,200.221c27.505,59.408,71.949,90.762,146.134,102.605c15.696,2.57,26.222,11.188,56.622,46.683
					L517.493,2021h67.842l-45.111-45.476c-24.936-24.935-45.106-46.646-45.106-48.554c0-1.906,9.539-6.086,21.086-9.605
					c38.066-11.52,69.677-40.927,91.789-85.997c17.896-36.192,20.465-47.38,23.03-92.409c6.712-134.033-63.956-217.83-181.635-216.873
					L449.393,1522.125L449.393,1522.125z M508.872,1872.63c-33.004,15.986-80.929,19.177-112.212,7.699
					c-32.345-11.88-63.661-45.471-77.746-83.499c-15.658-41.585-13.422-118.3,4.475-152.848c28.787-55.007,66.854-80.308,122.483-80.308
					c82.51,0,129.449,50.536,135.574,145.512c4.842,79.285-21.71,138.765-72.538,163.41L508.872,1872.63z M1680.817,1636.612
					c-28.457,0-50.24,11.518-64.911,34.212l-11.514,17.971v-46.721h-49.249v280.171h49.216v-89.552
					c0-81.888,1.021-91.459,12.465-113.867c15.771-30.73,42.904-46.054,69.129-38.72l17.601,5.134v-48.553h-22.736V1636.612
					L1680.817,1636.612z M1391.48,1634.044c-9.647,0-19.88,1.285-30.069,3.524c-65.902,17.232-103.05,80.307-100.777,145.216
					c0,54.349,10.559,81.519,36.784,110.015c53.725,44.077,102.312,47.596,167.88,23.947c11.186-4.767,23.36-10.268,23.36-10.268
					v-44.077l-23.36,12.101c-53.064,23.102-93.035,23.102-125.052-4.109c-20.421-20.793-29.409-45.73-33.551-74.183h198.574v-37.776
					c0-77.009-46.352-125.635-113.83-124.389H1391.48L1391.48,1634.044z M1311.169,1756.894c0,0,7.336-48.038,34.545-66.888
					c13.096-9.243,28.127-13.714,42.831-13.714c14.744,0,29.448,4.765,41.586,14.046c24.94,19.178,29.118,66.193,29.118,66.193H1311.17
					v0.364L1311.169,1756.894L1311.169,1756.894z M123.859,1706.363c-53.392-32.346-77.082-55.671-74.185-83.175
					c8.286-76.093,102.314-65.567,154.385-36.779l0.37-51.192c0,0-28.789-12.468-70.045-13.129
					c-63.295-0.954-104.22,19.801-123.396,62.047c-28.166,62.341-3.227,109.352,86.914,161.795
					c50.605,29.445,72.972,55.007,72.972,82.875c0,57.575-69.418,77.672-141.036,41.549c-14.739-7.334-27.209-13.459-27.869-13.459
					c-2.569,16.32-1.245,55.374-1.245,55.374s22.004,9.243,55.005,15.619c81.847,16.319,156.33-22.075,163.37-84.416
					c6.125-58.526-15.039-89.222-95.237-137.151L123.859,1706.363L123.859,1706.363z M2116.691,1633.386
					c-9.608,0-19.804,1.319-30.439,3.556c-65.823,17.235-102.901,80.312-100.371,145.221c0,54.274,10.527,81.189,36.745,109.645
					c53.727,44.118,102.316,47.673,168.215,23.986c11.147-4.765,23.286-10.19,23.286-10.19v-44.152l-23.322,12.171
					c-53.172,23.031-93.147,23.031-125.049-4.178c-20.538-20.756-29.448-45.4-33.593-74.188h198.246v-37.772
					c0-76.64-46.355-125.306-113.83-124.02L2116.691,1633.386L2116.691,1633.386z M2036.38,1756.234c0,0,7.408-47.967,34.58-67.184
					c13.056-9.275,28.09-13.752,42.795-13.752c14.668,0,29.448,4.767,41.59,14.082c24.936,19.18,29.118,66.523,29.118,66.523H2036.42
					L2036.38,1756.234L2036.38,1756.234z M1133.679,1706.986c-53.392-32.27-77.011-55.67-74.15-83.175
					c8.286-76.131,102.316-65.567,154.387-36.779l0.369-51.192c0,0-28.789-12.47-70.045-13.058
					c-63.295-0.952-104.22,19.804-123.432,62.048c-28.127,62.339-2.861,109.354,86.983,161.795
					c50.536,29.412,72.903,54.641,72.903,82.51c0,57.575-69.382,78.002-141.002,41.547c-14.668-7.334-27.135-13.386-27.869-13.386
					c-2.569,16.317-1.245,55.375-1.245,55.375s21.744,8.912,54.638,15.62c81.923,16.356,156.44-22.004,163.446-84.345
					c6.088-58.235-15.035-88.928-94.982-136.895v-0.068L1133.679,1706.986z M2406.065,1635.953c-28.457,0-50.493,11.548-64.908,34.251
					l-11.518,17.895v-46.644h-49.249v280.095h49.213V1832c0-81.852,0.988-91.461,12.471-113.83
					c15.768-30.693,42.901-46.056,69.122-38.688l17.6,5.132v-48.66h-22.733V1635.953z M742.03,1705.371v-178.445h-49.651v395.247
					h208.808v-46.68H742.032v-170.122L742.03,1705.371z M1890.283,1761l-40.925,106.494l-39.351-107.081l-39.971-118.667h-50.825
					c32.933,93.367,68.755,188.343,104.879,280.426c15.659,0.365,31.354,0,47.01,0l55.267-138.765l56.29-141.626h-48.588
					c0,0-21.456,56.255-43.822,119.255L1890.283,1761L1890.283,1761z M856.444,1419.222c7.995,0,14.668-2.564,20.169-8.065
					c5.425-5.43,8.286-11.81,8.286-19.804c0-7.995-2.861-14.67-8.286-19.804c-5.501-5.132-11.846-7.703-19.804-7.703
					c-8.065,0-14.741,2.57-20.169,7.995c-5.499,5.43-7.994,12.105-7.994,19.806c0,8.068,2.569,14.739,7.994,19.804
					c5.136,5.131,11.81,7.699,19.804,7.699L856.444,1419.222L856.444,1419.222z M838.843,1373.751
					c4.765-4.765,10.561-6.969,17.967-6.969c6.969,0,12.764,2.203,17.606,6.969c4.767,4.767,7.334,10.561,7.334,17.602
					c0,7.04-2.567,13.129-7.334,17.895c-4.84,4.764-10.637,7.04-17.606,7.04c-7.077,0-12.835-2.2-17.6-7.04
					c-4.767-4.765-7.334-10.855-7.334-17.895C831.876,1384.312,834.076,1378.52,838.843,1373.751z M850.686,1393.922h3.227
					c2.276,0,4.512,2.198,6.418,6.38l3.854,8.651h6.049l-4.765-9.61c-1.943-3.847-3.849-6.084-6.088-6.712
					c2.824-0.66,5.06-1.612,6.675-3.521c1.61-1.647,2.198-3.886,2.198-6.418c0-2.932-0.917-5.131-2.858-6.746
					c-2.202-1.833-5.723-2.822-10.271-2.822h-10.19v35.828h5.132v-15.035L850.686,1393.922L850.686,1393.922z M850.686,1377.272h4.476
					c3.227,0,5.501,0.66,6.747,1.612c1.211,0.954,1.541,2.203,1.541,4.474c0,4.143-2.57,6.089-7.334,6.089h-5.499v-12.176H850.686
					L850.686,1377.272z M30.493,1390.729c0-12.468-0.365-21.744-0.66-27.209h0.294c1.282,6.45,2.86,11.257,4.143,14.447l47.671,106.494
					h7.995l47.671-107.446c1.287-2.931,2.57-7.334,4.146-13.459h0.365c-0.952,10.637-1.282,19.877-1.282,27.246v93.991h16.315v-139.719
					h-20.462l-43.82,97.178c-1.615,3.849-3.852,9.61-6.712,17.237h-0.663c-0.952-3.778-3.189-9.536-6.379-16.577l-42.834-98.171H14.539
					v139.717h15.695v-93.659L30.493,1390.729L30.493,1390.729z M192.91,1390.99h14.085v87.018H192.91V1390.99z M199.952,1359.083
					c2.936,0,5.428-0.993,7.334-2.932c1.945-1.909,3.23-4.402,3.23-7.334c0-2.861-0.955-5.43-3.191-7.334
					c-1.98-1.945-4.512-2.937-7.409-2.937c-2.858,0-5.425,0.993-7.336,2.937c-1.938,1.904-3.225,4.473-3.225,7.334
					c0,3.191,0.991,5.425,3.225,7.334c2.205,1.94,4.476,2.932,7.336,2.932H199.952L199.952,1359.083z M307.402,1479.917v-15.331
					c-7.703,5.758-15.991,8.621-24.571,8.621c-10.265,0-18.593-3.519-24.681-10.265c-6.049-6.675-9.275-15.957-9.275-27.507
					c0-12.101,3.227-21.713,9.899-29.047c6.418-7.04,14.744-10.561,24.94-10.561c8.323,0,16.314,2.57,23.69,7.706v-16.319
					c-6.71-3.521-14.374-5.136-23.031-5.136c-15.991,0-28.455,5.136-37.77,15.04c-9.243,9.899-14.01,23.359-14.01,39.604
					c0,14.447,4.143,26.587,12.764,35.866c8.983,9.532,20.465,14.374,34.545,14.374C290.789,1486.663,299.699,1484.389,307.402,1479.917
					L307.402,1479.917z M347.701,1433.527c0-11.479,2.567-20.754,7.334-27.14c4.476-5.755,9.901-8.651,16.319-8.651
					c5.428,0,9.277,0.989,12.099,3.227v-16.65c-2.198-0.952-5.389-1.282-9.532-1.282c-5.758,0-10.889,1.938-15.4,5.501
					c-4.767,3.773-8.58,9.534-10.818,16.868h-0.365v-20.428h-15.952v99.747h15.987v-51.192H347.701z M439.49,1486.699
					c15.037,0,27.138-4.841,36.121-14.447c8.946-9.539,13.42-22.371,13.42-38.363c0-16.314-4.104-28.783-12.466-38.066
					c-8.286-9.272-19.804-13.752-34.841-13.752s-27.138,4.476-36.121,13.129c-9.607,9.539-14.668,22.997-14.668,40.269
					c0,15.035,4.108,27.505,12.764,36.782c8.946,9.605,20.792,14.41,35.791,14.41L439.49,1486.699L439.49,1486.699z M416.754,1405.435
					c6.088-6.418,14.085-9.61,23.983-9.61c10.271,0,17.971,3.193,23.692,9.61c5.756,6.712,8.619,16.285,8.619,29.081
					c0,12.172-2.569,21.745-7.997,28.163c-5.425,6.712-13.42,10.266-23.984,10.266c-10.266,0-18.225-3.558-24.312-10.266
					c-6.049-6.747-8.947-15.991-8.947-28.163C407.184,1422.415,410.375,1412.515,416.754,1405.435L416.754,1405.435z M559.041,1478.008
					c6.086-5.425,9.316-12.1,9.316-20.465c0-7.334-2.57-13.42-7.336-18.224c-3.889-3.847-9.899-7.334-18.591-10.855
					c-7.704-3.223-12.47-6.088-15.039-8.325c-2.565-2.565-4.143-5.753-4.143-10.266c0-4.143,1.615-7.334,4.771-9.901
					c3.227-2.564,7.334-3.81,12.835-3.81c8.618,0,15.987,2.271,22.733,7.077v-15.991c-6.453-3.223-13.457-4.764-21.453-4.764
					c-10.266,0-18.921,2.826-25.305,8.285c-6.712,5.432-9.899,12.471-9.899,20.756c0,7.334,2.198,13.424,6.377,17.895
					c3.521,3.815,9.539,7.704,17.896,11.185c7.997,3.522,13.424,6.71,16.319,9.275c2.86,2.57,4.143,5.758,4.143,9.539
					c0,9.311-6.379,14.119-18.849,14.119c-9.609,0-18.223-3.156-25.929-9.534v17.23c6.969,4.185,15.331,6.09,24.571,6.09
					c11.846-0.622,21.121-3.519,27.503-9.277L559.041,1478.008L559.041,1478.008z M635.17,1382.075
					c-15.039,0-27.138,4.476-36.123,13.129c-9.534,9.539-14.668,22.997-14.668,40.269c0,15.035,4.146,27.505,12.762,36.782
					c8.985,9.605,20.792,14.409,35.828,14.409c15.4,0,27.138-4.838,36.121-14.45c8.985-9.533,13.457-22.368,13.457-38.358
					c0-16.319-4.18-28.785-12.47-38.064c-8.65-9.279-20.169-13.753-34.837-13.753L635.17,1382.075L635.17,1382.075z M666.193,1434.518
					c0,12.172-2.567,21.745-7.994,28.163c-5.428,6.712-13.424,10.266-23.986,10.266c-10.271,0-18.226-3.558-24.316-10.266
					c-6.049-6.747-8.946-15.991-8.946-28.163c0-12.835,3.193-22.735,9.61-29.413c6.047-6.38,14.046-9.609,23.983-9.609
					c9.899,0,17.859,3.225,23.614,9.609c5.136,7.04,7.997,16.613,7.997,29.413H666.193L666.193,1434.518z M709.394,1484.426h15.952
					v-86.359h23.359v-13.424h-23.36v-15.402c0-14.005,5.425-21.047,16.648-21.047c3.778,0,7.628,0.952,10.49,2.567v-14.41
					c-2.861-1.283-6.712-1.576-11.52-1.576c-8.616,0-15.656,2.569-21.416,7.994c-6.712,6.38-10.266,14.668-10.266,25.893v16.356h-16.873
					v13.42h16.873v86.034L709.394,1484.426z M774.923,1457.215c0,19.511,8.621,29.448,26.221,29.448c6.382,0,11.185-1.025,15.035-3.299
					v-13.714c-2.932,2.202-6.418,3.23-10.266,3.23c-5.425,0-9.24-1.289-11.479-4.185c-2.274-2.856-3.556-7.701-3.556-14.376v-56.289
					h25.3v-13.424h-25.3v-29.407c-5.501,1.906-10.89,3.521-15.991,5.131v24.275h-17.235v13.424h17.235v59.151L774.923,1457.215z
					M2491.142,1641.084c-5.427-5.131-11.844-7.699-19.801-7.699c-8.066,0-14.744,2.569-20.171,8.068
					c-5.427,5.391-7.997,12.1-7.997,19.804c0,7.995,2.57,14.67,7.956,19.801c5.43,5.134,12.101,7.704,20.171,7.704
					c7.956,0,14.668-2.57,20.171-7.997c5.391-5.501,8.251-11.844,8.251-19.801c-0.294-8.068-3.191-14.744-8.618-19.877
					L2491.142,1641.084z M2488.577,1678.859c-4.769,4.765-10.562,6.965-17.604,6.965c-6.966,0-12.759-2.2-17.601-6.965
					c-4.765-4.841-7.336-10.892-7.336-17.971c0-6.969,2.2-12.759,7.041-17.6c4.765-4.764,10.527-6.969,17.895-6.969
					c6.969,0,12.766,2.205,17.604,6.969c4.765,4.841,7.333,10.632,7.333,17.6C2495.909,1668.298,2493.709,1674.017,2488.577,1678.859z
					M2474.199,1662.538c2.86-0.66,5.136-1.943,6.712-3.519c1.615-1.652,2.204-3.891,2.204-6.451c0-2.861-0.918-5.136-2.86-6.712
					c-2.2-1.835-5.757-2.826-10.265-2.826h-10.196v35.79h5.136v-15.035h3.188c2.203,0,4.403,2.198,6.38,6.38l3.812,8.618h6.091
					l-4.765-9.61c-1.652-4.18-3.56-6.089-5.499-6.713L2474.199,1662.538L2474.199,1662.538z M2470.679,1659.313h-5.499v-12.099h4.512
					c3.191,0,5.427,0.583,6.712,1.576c1.282,0.952,1.576,2.2,1.576,4.474c0,4.143-2.567,6.052-7.333,6.052L2470.679,1659.313
					L2470.679,1659.313z M1578.504,1380.5h4.474v-35.828h11.841v-4.475h-28.159v4.475h11.848v35.828H1578.504z M1605.641,1353.584
					c0-3.487,0-6.347-0.257-7.956c0.294,1.904,0.954,3.191,1.248,4.143l13.753,30.73h2.2l13.785-31.026
					c0.37-0.952,0.665-2.2,1.285-3.847c-0.294,3.191-0.294,5.751-0.294,7.699v27.138h4.769v-40.267h-5.76l-12.465,27.798
					c-0.294,0.993-1.289,2.932-1.909,5.136h-0.367c-0.257-1.287-0.915-2.569-1.833-4.765l-12.468-28.165h-6.453v40.339h4.508v-26.917
					L1605.641,1353.584L1605.641,1353.584z"/>
				</svg>
