<?xml version="1.0" encoding="utf-8"?>
<!-- Generator: Adobe Illustrator 24.0.2, SVG Export Plug-In . SVG Version: 6.00 Build 0)  -->
<svg version="1.1" id="Layer_1" xmlns="http://www.w3.org/2000/svg" xmlns:xlink="http://www.w3.org/1999/xlink" x="0px" y="0px"
	viewBox="0 0 81.585 59" enable-background="new 0 0 81.585 59" xml:space="preserve" width="81" height="59">
	<g>
		<g>
			<path fill="#FFFFFF" d="M42.095,0.775c-1.95-0.268-3.953-0.449-5.9-0.054c-1.145,0.186-2.19,0.7-3.235,1.17
				c-3.232-1.01-6.706-1.672-10.075-0.987c-2.377,0.465-4.601,1.86-5.869,3.948c-1.578,2.55-1.84,5.678-1.604,8.602
				c0.421,3.289,1.201,6.523,2.119,9.706c0.832,2.756,1.775,5.515,3.278,7.985c0.866,1.375,2.02,2.743,3.65,3.187
				c1.281,0.362,2.661-0.065,3.663-0.897c0.519,0.499,1.123,0.914,1.806,1.152c1.946,0.669,4.13,0.671,6.048-0.101
				c0.114,2.651,0.018,5.396,0.985,7.913c0.392,1.204,1.075,2.371,2.165,3.064c1.18,0.786,2.679,0.92,4.046,0.674
				c1.25-0.238,2.518-0.56,3.609-1.24c1.14-0.7,2.01-1.78,2.562-2.991c1.235-2.715,1.294-5.756,1.464-8.682
				c2.834,0.163,5.843-0.475,8.011-2.405c0.852-0.718,1.579-1.839,1.256-2.996c-0.258-1.087-1.403-1.746-2.475-1.676
				c-1.093,0.072-2.154,0.423-3.257,0.423c2.451-4.257,4.365-8.866,5.249-13.712c0.336-2.02,0.558-4.139,0-6.141
				c-0.312-1.165-1.154-2.072-1.982-2.903c-1.875-1.858-4.338-3.074-6.928-3.541C47.83-0.268,44.882,0.044,42.095,0.775z"/>
			</g>
			<g>
				<path fill="#FFFFFF" d="M42.085,2.087c3.036-0.938,6.349-1.188,9.436-0.351c2.472,0.664,4.714,2.15,6.26,4.19
					c0.625,0.847,0.767,1.935,0.813,2.958c0.059,1.827-0.258,3.642-0.669,5.417c-1.129,4.67-3.149,9.095-5.717,13.146
					c1.439,0.617,3.053,0.308,4.537,0.044c0.618-0.122,1.416-0.271,1.884,0.271c0.455,0.591,0.018,1.343-0.444,1.777
					c-2.159,2.11-5.427,2.663-8.316,2.175c-0.292,2.581-0.599,5.164-1.002,7.732c-0.224,1.434-0.702,2.929-1.824,3.917
					c-1.056,0.923-2.446,1.33-3.797,1.586c-1.377,0.24-2.924,0.042-4.009-0.904c-1.15-1.018-1.805-2.526-1.95-4.04
					c-0.292-2.584-0.305-5.19-0.297-7.789c-1.242,1.07-2.893,1.62-4.528,1.496c-1.154-0.096-2.431-0.277-3.297-1.119
					c-0.48-0.439-0.454-1.271,0.08-1.653c0.925-0.698,2.155-0.644,3.204-1.049c0.778-0.228,1.181-0.985,1.671-1.566
					c-0.904-0.067-1.788-0.297-2.602-0.697c-1.247,1.328-2.449,2.7-3.617,4.1c-0.675,0.809-1.672,1.493-2.775,1.359
					c-1.24-0.152-2.162-1.124-2.855-2.088c-1.366-1.963-2.209-4.227-2.978-6.476c-1.165-3.606-2.08-7.303-2.611-11.059
					c-0.263-2.829-0.039-5.911,1.609-8.324c1.304-1.935,3.585-2.989,5.856-3.226c3.054-0.32,6.14,0.303,9.008,1.336
					c2.39-1.596,5.43-1.816,8.186-1.256C41.588,2.025,41.834,2.137,42.085,2.087z M44.329,2.87c0.594,0.411,1.261,0.697,1.857,1.106
					c2.444,1.636,4.35,4.02,5.547,6.698c0.331,0.773,0.672,1.588,0.604,2.449c0.015,1.759-0.587,3.474-0.408,5.237
					c0.171,1.868,0.574,3.779,0.098,5.636c-0.134,0.658-0.478,1.242-0.715,1.862c0.018,0.09,0.052,0.269,0.07,0.357
					c0.225-0.29,0.429-0.597,0.617-0.914c1.899-3.218,3.41-6.673,4.405-10.279c0.52-1.948,0.928-3.95,0.904-5.975
					c-0.036-0.85-0.106-1.778-0.658-2.47c-1.157-1.449-2.697-2.593-4.431-3.25C49.715,2.383,46.928,2.312,44.329,2.87z M37.107,3.114
					c-1.938,0.253-3.754,1.3-4.924,2.87c-1.592,2.11-2.288,4.769-2.49,7.368c1.601-0.747,3.404-1.447,5.192-0.997
					c1.162,0.279,2.035,1.294,2.289,2.441c0.522,2.299,0.804,4.722,0.294,7.05c-0.393,1.881-1.54,3.508-1.92,5.392
					c0.485,0.039,0.99,0.072,1.423,0.315c0.892,0.486,1.406,1.529,1.351,2.531c-0.067,2.565-0.064,5.131,0.072,7.693
					c0.08,1.061,0.109,2.137,0.39,3.169c0.383,1.23,1.237,2.491,2.591,2.73c1.426,0.219,2.899-0.186,4.167-0.83
					c1.238-0.653,1.795-2.046,2.007-3.356c0.449-2.735,0.759-5.49,1.074-8.243c0.135-0.982-0.057-2.061,0.491-2.945
					c0.313-0.568,0.928-0.834,1.48-1.113c-0.462-0.592-0.95-1.168-1.312-1.829c-1.364-2.816-3.211-5.479-3.78-8.612
					c-0.245-1.318-0.104-2.886,0.985-3.805c1.201-1.033,2.886-0.972,4.373-0.92c-0.894-2.527-2.553-4.776-4.653-6.435
					C43.665,3.588,40.305,2.708,37.107,3.114z M23.479,3.33c-1.778,0.333-3.472,1.351-4.379,2.948c-1.212,2.11-1.344,4.65-1.132,7.019
					c0.426,3.113,1.167,6.176,2.044,9.189c0.783,2.547,1.64,5.112,3.059,7.383c0.525,0.773,1.126,1.635,2.069,1.907
					c0.806,0.166,1.446-0.498,1.919-1.056c1.072-1.323,2.245-2.557,3.351-3.851c-1.625-1.477-2.503-3.727-2.208-5.915
					c0.235-1.676,0.279-3.373,0.176-5.061c-0.178-2.397,0.163-4.825,0.909-7.106c0.548-1.708,1.486-3.268,2.692-4.593
					C29.246,3.362,26.326,2.782,23.479,3.33z M47.406,13.865c-0.826,0.646-0.783,1.822-0.615,2.753
					c0.594,2.922,2.299,5.427,3.617,8.05c0.984-1.977,0.379-4.219,0.227-6.305c-0.168-1.685,0.348-3.327,0.4-5.001
					C49.824,13.287,48.453,13.121,47.406,13.865z M29.648,14.944c0.028,1.405,0.127,2.811,0.031,4.216
					c-0.042,1.242-0.406,2.488-0.127,3.727c0.408,2.191,2.366,4.136,4.668,4.113c0.338-1.105,0.729-2.195,1.212-3.245
					c1.384-2.725,1.16-5.926,0.437-8.804c-0.197-0.811-0.958-1.393-1.782-1.429C32.496,13.429,30.961,14.095,29.648,14.944z
					M50.393,28.773c-0.429,0.398-0.4,1.033-0.405,1.57c0.948,0.325,1.968,0.29,2.95,0.173c1.483-0.16,2.992-0.656,4.081-1.715
					c-1.782,0.215-3.73,0.646-5.405-0.237C51.219,28.29,50.734,28.522,50.393,28.773z M33.518,30.826
					c-0.994,0.587-2.199,0.55-3.231,1.028c2.09,1.065,4.983,0.692,6.429-1.266c0.741-0.689,0.024-2.144-0.954-2.005
					C34.862,29.168,34.48,30.308,33.518,30.826z"/>
				</g>
				<path fill="#FFFFFF" d="M47.793,14.257c0.594-0.424,1.418-0.455,2.074-0.15c-0.024,0.83-1.02,1.428-1.746,1
					C47.82,14.971,47.443,14.544,47.793,14.257z"/>
					<path fill="#FFFFFF" d="M33.338,14.306c0.62-0.166,1.362-0.086,1.873,0.328c0.357,0.29,0.031,0.772-0.279,0.946
						c-0.703,0.519-1.821,0.011-1.964-0.822C32.927,14.513,33.138,14.376,33.338,14.306z"/>
					</g>
					<g>
						<path fill="#326690" d="M52.149,47.146c1.008-0.558,2.203-0.596,3.328-0.615c1.217,0.015,2.552,0.114,3.547,0.897
							c0.623,0.481,0.888,1.278,0.889,2.043c-0.387,0.002-0.772,0-1.157,0c-0.14-0.751-0.47-1.558-1.251-1.836
							c-1.307-0.496-2.808-0.465-4.139-0.077c-1.067,0.295-1.457,1.839-0.635,2.584c0.589,0.47,1.374,0.534,2.084,0.692
							c1.455,0.31,2.999,0.361,4.355,1.025c1.446,0.724,1.39,3.036,0.116,3.904c-1.057,0.726-2.402,0.806-3.645,0.816
							c-1.354-0.021-2.831-0.148-3.932-1.023c-0.705-0.558-0.923-1.486-0.964-2.343c0.395-0.02,0.79-0.026,1.186-0.028
							c0.086,0.91,0.514,1.857,1.421,2.203c1.419,0.551,3.061,0.545,4.51,0.106c1.013-0.286,1.406-1.576,0.946-2.46
							c-0.219-0.4-0.648-0.617-1.069-0.733c-1.77-0.478-3.645-0.504-5.374-1.142C50.733,50.561,50.679,47.961,52.149,47.146z"/>
							<g>
								<path fill="#326690" d="M63.157,47.249c1.351-0.689,2.916-0.796,4.404-0.674c1.413,0.117,2.852,0.64,3.808,1.723
									c1.186,1.278,1.398,3.209,0.953,4.839c-0.241,0.914-0.883,1.635-1.571,2.248c0.543,0.395,1.108,0.759,1.651,1.157
									c-0.243,0.235-0.493,0.462-0.749,0.682c-0.574-0.369-1.101-0.809-1.695-1.144c-0.458,0-0.878,0.277-1.335,0.341
									c-1.273,0.225-2.596,0.241-3.867-0.008c-1.385-0.277-2.717-1.054-3.464-2.278c-0.739-1.196-0.835-2.705-0.496-4.045
									C61.11,48.851,62.025,47.817,63.157,47.249z M65.003,47.469c-1.32,0.307-2.55,1.227-2.978,2.549
									c-0.452,1.423-0.295,3.138,0.736,4.28c0.907,1.028,2.304,1.491,3.647,1.512c1.485,0.049,3.11-0.377,4.087-1.563
									c1.335-1.716,1.181-4.577-0.605-5.931C68.54,47.218,66.641,47.119,65.003,47.469z"/>
								</g>
								<path fill="#326690" d="M73.317,46.776c0.375-0.008,0.751-0.018,1.127-0.029c0.031,2.927,0.007,5.854,0.011,8.781
									c2.376,0.041,4.753-0.018,7.128,0.029c-0.002,0.259-0.003,0.52-0.005,0.782c-2.754,0.002-5.51,0.011-8.266-0.007
									C73.319,53.147,73.313,49.961,73.317,46.776z"/>
									<path fill="#326690" d="M44.329,2.87c2.599-0.558,5.386-0.486,7.89,0.457c1.734,0.658,3.275,1.801,4.431,3.25
										c0.551,0.692,0.622,1.62,0.658,2.47c0.024,2.025-0.383,4.027-0.904,5.975c-0.995,3.606-2.506,7.062-4.405,10.279
										c-0.188,0.317-0.392,0.623-0.617,0.914c-0.018-0.088-0.052-0.268-0.07-0.357c0.237-0.62,0.581-1.204,0.715-1.862
										c0.476-1.857,0.073-3.767-0.098-5.636c-0.179-1.764,0.423-3.479,0.408-5.237c0.069-0.861-0.272-1.676-0.604-2.449
										c-1.198-2.677-3.103-5.061-5.547-6.698C45.59,3.566,44.923,3.281,44.329,2.87z"/>
										<path fill="#326690" d="M37.107,3.114c3.198-0.406,6.557,0.473,9.098,2.474c2.1,1.659,3.759,3.908,4.653,6.435
											c-1.486-0.052-3.172-0.113-4.373,0.92c-1.09,0.919-1.23,2.487-0.985,3.805c0.569,3.133,2.416,5.795,3.78,8.612
											c0.362,0.661,0.85,1.237,1.312,1.829c-0.551,0.279-1.167,0.545-1.48,1.113c-0.548,0.884-0.356,1.963-0.491,2.945
											c-0.315,2.753-0.625,5.508-1.074,8.243c-0.212,1.31-0.768,2.704-2.007,3.356c-1.268,0.644-2.741,1.049-4.167,0.83
											c-1.354-0.238-2.208-1.499-2.591-2.73c-0.281-1.031-0.31-2.108-0.39-3.169c-0.135-2.562-0.139-5.128-0.072-7.693
											c0.055-1.002-0.458-2.044-1.351-2.531c-0.432-0.243-0.938-0.276-1.423-0.315c0.38-1.885,1.527-3.511,1.92-5.392
											c0.511-2.328,0.228-4.751-0.294-7.05c-0.255-1.147-1.127-2.162-2.289-2.441c-1.788-0.45-3.591,0.25-5.192,0.997
											c0.202-2.599,0.897-5.259,2.49-7.368C33.353,4.415,35.169,3.367,37.107,3.114z"/>
											<path fill="#326690" d="M23.479,3.33c2.847-0.548,5.768,0.033,8.501,0.866c-1.206,1.325-2.144,2.885-2.692,4.593
												c-0.746,2.281-1.087,4.709-0.909,7.106c0.103,1.689,0.059,3.386-0.176,5.061c-0.295,2.188,0.582,4.438,2.208,5.915
												c-1.106,1.294-2.279,2.527-3.351,3.851c-0.473,0.558-1.113,1.222-1.919,1.056c-0.943-0.272-1.543-1.134-2.069-1.907
												c-1.419-2.271-2.276-4.836-3.059-7.383c-0.878-3.014-1.619-6.076-2.044-9.189c-0.212-2.369-0.08-4.909,1.132-7.019
												C20.006,4.681,21.7,3.663,23.479,3.33z"/>
												<g>
													<path fill="#326690" d="M47.406,13.865c1.047-0.744,2.418-0.578,3.629-0.503c-0.052,1.674-0.568,3.315-0.4,5.001
														c0.152,2.085,0.757,4.327-0.227,6.305c-1.318-2.624-3.023-5.128-3.617-8.05C46.623,15.688,46.58,14.511,47.406,13.865z
														M47.793,14.257c-0.349,0.287,0.028,0.715,0.328,0.85c0.726,0.427,1.721-0.17,1.746-1C49.211,13.801,48.387,13.832,47.793,14.257z
														"/>
													</g>
													<g>
														<path fill="#326690" d="M29.648,14.944c1.313-0.848,2.849-1.514,4.44-1.423c0.824,0.036,1.584,0.618,1.782,1.429
															c0.723,2.878,0.946,6.079-0.437,8.804c-0.483,1.051-0.875,2.141-1.212,3.245c-2.302,0.023-4.26-1.922-4.668-4.113
															c-0.279-1.238,0.085-2.485,0.127-3.727C29.775,17.755,29.675,16.348,29.648,14.944z M33.338,14.306
															c-0.201,0.07-0.411,0.207-0.37,0.452c0.144,0.834,1.261,1.341,1.964,0.822c0.31-0.175,0.636-0.656,0.279-0.946
															C34.701,14.219,33.958,14.139,33.338,14.306z"/>
														</g>
														<path fill="#326690" d="M50.393,28.773c0.341-0.251,0.826-0.483,1.22-0.209c1.676,0.883,3.624,0.452,5.405,0.237
															c-1.088,1.059-2.598,1.555-4.081,1.715c-0.982,0.117-2.002,0.152-2.95-0.173C49.994,29.806,49.964,29.171,50.393,28.773z"/>
															<path fill="#326690" d="M33.518,30.826c0.963-0.517,1.344-1.658,2.243-2.243c0.979-0.139,1.695,1.317,0.954,2.005
																c-1.446,1.958-4.338,2.332-6.429,1.266C31.318,31.375,32.524,31.413,33.518,30.826z"/>
															</g>
															<g>
																<g>
																	<path d="M0.008,46.776c1.795,0.007,3.59-0.015,5.386-0.026c0.832-0.01,1.728,0.144,2.371,0.713
																		c0.871,0.754,1.023,2.082,0.649,3.123c-0.442,1.126-1.71,1.653-2.849,1.681c-1.535,0.02-3.072-0.008-4.608,0.011
																		c-0.016,1.356,0.023,2.71,0.008,4.066c-0.32-0.002-0.64-0.002-0.958,0C-0.002,53.154-0.003,49.966,0.008,46.776z M0.971,47.541
																		c-0.002,1.328-0.007,2.656,0.003,3.984c1.418-0.003,2.836,0.021,4.254-0.011c0.791-0.024,1.718-0.297,2.049-1.093
																		c0.261-0.713,0.22-1.599-0.263-2.211c-0.47-0.563-1.256-0.667-1.946-0.671C3.702,47.538,2.336,47.538,0.971,47.541z"/>
																	</g>
																	<path d="M25.585,48.005c0.328,0,0.656,0,0.985,0c0,0.684-0.002,1.366,0.005,2.049c0.56,0.007,1.119,0.007,1.679,0
																		c0.008,0.222,0.016,0.442,0.026,0.664c-0.566,0.011-1.132,0.011-1.698-0.002c-0.023,1.343-0.005,2.684-0.013,4.025
																		c0.01,0.305-0.02,0.71,0.292,0.884c0.436,0.219,0.94,0.139,1.406,0.113c0,0.212,0.002,0.426,0.003,0.64
																		c-0.72,0.082-1.495,0.135-2.162-0.196c-0.403-0.21-0.537-0.692-0.529-1.116c-0.008-1.452,0.003-2.903-0.003-4.355
																		c-0.423,0.002-0.844,0-1.266-0.005c0.003-0.217,0.005-0.434,0.008-0.649c0.418,0.005,0.834,0.002,1.251-0.016
																		C25.575,49.362,25.577,48.683,25.585,48.005z"/>
																		<g>
																			<path d="M11.17,49.946c1.248-0.184,2.612-0.142,3.735,0.493c1.687,0.95,1.924,3.498,0.749,4.934
																				c-1.008,1.119-2.66,1.271-4.074,1.152c-1.149-0.07-2.325-0.64-2.868-1.694c-0.493-0.974-0.499-2.186-0.039-3.173
																				C9.135,50.697,10.145,50.118,11.17,49.946z M11.651,50.583c-0.922,0.108-1.829,0.689-2.131,1.597
																				c-0.338,1.01-0.194,2.27,0.627,3.015c0.649,0.596,1.578,0.734,2.426,0.693c0.77-0.031,1.588-0.235,2.137-0.811
																				c0.602-0.591,0.702-1.499,0.623-2.299c-0.06-0.692-0.393-1.393-1.003-1.762C13.536,50.532,12.555,50.478,11.651,50.583z"/>
																			</g>
																			<path d="M17.706,50.406c0.649-0.414,1.449-0.48,2.199-0.532c1.059-0.024,2.217-0.031,3.134,0.578
																				c0.511,0.32,0.695,0.925,0.767,1.49c-0.344,0.013-0.69,0.016-1.034,0.016c-0.072-0.468-0.263-0.964-0.733-1.16
																				c-0.845-0.388-1.822-0.346-2.723-0.217c-0.56,0.08-1.243,0.398-1.26,1.049c-0.049,0.462,0.374,0.786,0.777,0.886
																				c1.188,0.299,2.429,0.269,3.625,0.525c0.534,0.126,1.109,0.339,1.413,0.827c0.414,0.708,0.157,1.725-0.561,2.134
																				c-0.871,0.516-1.925,0.542-2.911,0.547c-0.959-0.038-2.004-0.054-2.823-0.625c-0.503-0.348-0.675-0.969-0.77-1.54
																				c0.357-0.005,0.715,0,1.072,0.007c0.018,0.778,0.672,1.33,1.406,1.423c1.067,0.153,2.247,0.241,3.24-0.255
																				c0.689-0.346,0.622-1.46-0.106-1.718c-1.477-0.431-3.085-0.289-4.541-0.817C16.83,52.606,16.813,50.995,17.706,50.406z"/>
																				<g>
																					<path d="M31.227,50.028c1.016-0.227,2.105-0.243,3.108,0.06c0.573,0.155,0.972,0.612,1.405,0.984
																						c0.02-0.334,0.028-0.669,0.046-1.002c0.315,0.002,0.63-0.002,0.946-0.008c0.085,1.933,0.011,3.873,0.038,5.81
																						c0.024,0.801-0.132,1.682-0.757,2.242c-0.821,0.744-1.991,0.865-3.049,0.886c-0.941-0.02-1.933-0.041-2.785-0.488
																						c-0.596-0.308-0.881-0.961-0.999-1.588c0.321-0.007,0.643-0.01,0.966-0.02c0.204,0.416,0.361,0.92,0.809,1.139
																						c0.672,0.323,1.442,0.333,2.173,0.328c0.814-0.028,1.747-0.184,2.26-0.891c0.494-0.675,0.382-1.558,0.382-2.343
																						c-1.02,1.033-2.562,1.225-3.94,1.059c-0.865-0.1-1.769-0.408-2.333-1.105c-0.685-0.847-0.77-2.043-0.516-3.067
																						C29.246,50.979,30.209,50.258,31.227,50.028z M32.053,50.61c-0.71,0.111-1.421,0.457-1.816,1.078
																						c-0.458,0.739-0.465,1.705-0.157,2.503c0.328,0.827,1.22,1.25,2.061,1.336c1.067,0.153,2.312,0.015,3.074-0.827
																						c0.853-1.038,0.76-2.839-0.382-3.638C34.027,50.516,32.988,50.483,32.053,50.61z"/>
																					</g>
																					<path d="M39.768,50.124c0.715-0.313,1.514-0.255,2.276-0.253c0,0.266,0.002,0.532,0.005,0.798c-0.783-0.011-1.656-0.116-2.33,0.374
																						c-0.658,0.45-0.884,1.289-0.896,2.048c-0.011,1.083,0.007,2.168-0.005,3.253c-0.323-0.002-0.646-0.003-0.968-0.003
																						c-0.031-2.09-0.036-4.18-0.008-6.27c0.323,0.002,0.648,0.002,0.971-0.003c0.007,0.361,0.008,0.723,0.018,1.083
																						C39.072,50.754,39.325,50.32,39.768,50.124z"/>
																						<g>
																							<path d="M42.384,51.424c0.658-1.061,1.943-1.512,3.139-1.55c1.224-0.06,2.604,0.106,3.498,1.033
																								c0.662,0.643,0.879,1.586,0.915,2.478c-2.336,0.021-4.673-0.016-7.008,0.02c0.054,0.631,0.245,1.286,0.736,1.72
																								c0.907,0.834,2.276,0.909,3.426,0.651c0.764-0.165,1.351-0.759,1.632-1.47c0.356-0.002,0.711,0,1.069,0.003
																								c-0.305,1.061-1.24,1.829-2.297,2.067c-1.433,0.333-3.084,0.276-4.319-0.604C41.826,54.825,41.571,52.797,42.384,51.424z
																								M44.151,50.911c-0.71,0.367-1.043,1.147-1.212,1.888c1.986,0.015,3.973,0.013,5.96,0c-0.067-0.452-0.199-0.91-0.512-1.256
																								C47.383,50.326,45.484,50.199,44.151,50.911z"/>
																							</g>
																							<g>
																								<path d="M42.095,0.775c2.787-0.731,5.735-1.043,8.587-0.501c2.589,0.467,5.053,1.682,6.928,3.541
																									c0.829,0.83,1.671,1.738,1.982,2.903c0.558,2.002,0.336,4.121,0,6.141c-0.884,4.846-2.798,9.455-5.249,13.712
																									c1.103,0,2.164-0.351,3.257-0.423c1.072-0.07,2.217,0.589,2.475,1.676c0.323,1.157-0.405,2.278-1.256,2.996
																									c-2.168,1.93-5.177,2.568-8.011,2.405c-0.17,2.925-0.228,5.967-1.464,8.682c-0.551,1.211-1.421,2.291-2.562,2.991
																									c-1.092,0.68-2.359,1.002-3.609,1.24c-1.367,0.246-2.867,0.113-4.046-0.674c-1.09-0.693-1.774-1.86-2.165-3.064
																									c-0.968-2.518-0.871-5.262-0.985-7.913c-1.919,0.772-4.102,0.77-6.048,0.101c-0.684-0.238-1.287-0.653-1.806-1.152
																									c-1.002,0.832-2.382,1.26-3.663,0.897c-1.63-0.444-2.784-1.811-3.65-3.187c-1.503-2.47-2.446-5.229-3.278-7.985
																									c-0.919-3.183-1.698-6.417-2.119-9.706c-0.237-2.924,0.026-6.052,1.604-8.602c1.268-2.088,3.492-3.483,5.869-3.948
																									c3.369-0.685,6.843-0.023,10.075,0.987c1.046-0.47,2.09-0.984,3.235-1.17C38.142,0.326,40.145,0.507,42.095,0.775z M42.085,2.087
																									c-0.251,0.051-0.498-0.062-0.744-0.093c-2.756-0.56-5.795-0.339-8.186,1.256c-2.868-1.033-5.954-1.656-9.008-1.336
																									c-2.271,0.237-4.552,1.291-5.856,3.226c-1.648,2.413-1.871,5.495-1.609,8.324c0.53,3.756,1.446,7.453,2.611,11.059
																									c0.768,2.248,1.612,4.513,2.978,6.476c0.693,0.964,1.615,1.937,2.855,2.088c1.103,0.134,2.1-0.55,2.775-1.359
																									c1.168-1.4,2.371-2.772,3.617-4.1c0.814,0.4,1.698,0.63,2.602,0.697c-0.489,0.581-0.892,1.338-1.671,1.566
																									c-1.049,0.405-2.279,0.351-3.204,1.049c-0.534,0.382-0.56,1.214-0.08,1.653c0.866,0.842,2.144,1.023,3.297,1.119
																									c1.635,0.124,3.286-0.426,4.528-1.496c-0.008,2.599,0.005,5.205,0.297,7.789c0.145,1.514,0.799,3.022,1.95,4.04
																									c1.085,0.946,2.632,1.144,4.009,0.904c1.351-0.256,2.741-0.662,3.797-1.586c1.123-0.989,1.601-2.483,1.824-3.917
																									c0.403-2.568,0.71-5.151,1.002-7.732c2.89,0.488,6.158-0.065,8.316-2.175c0.462-0.434,0.899-1.186,0.444-1.777
																									c-0.468-0.542-1.266-0.393-1.884-0.271c-1.485,0.264-3.098,0.573-4.537-0.044c2.568-4.051,4.588-8.476,5.717-13.146
																									c0.411-1.775,0.728-3.59,0.669-5.417c-0.046-1.023-0.188-2.111-0.813-2.958c-1.547-2.04-3.789-3.526-6.26-4.19
																									C48.434,0.899,45.122,1.148,42.085,2.087z"/>
																								</g>
																							</g>
																						</svg>
